<svg width="64" height="64" viewBox="0 0 64 64" xmlns="http://www.w3.org/2000/svg" role="img" aria-label="AYANA logo">
  <defs>
    <linearGradient id="ayanaBubble" x1="0" y1="0" x2="1" y2="1">
      <stop offset="0%" stop-color="#2C4C3B"/>
      <stop offset="100%" stop-color="#1A362A"/>
    </linearGradient>
  </defs>

  <!-- Chat bubble (their WhatsApp hello) -->
  <path d="M32 6C17.64 6 6 16.75 6 30c0 6.9 3.13 13.1 8.16 17.48-.37 3.6-1.6 6.53-3.6 9.2a1.4 1.4 0 0 0 1.5 2.2c4.9-1.14 8.86-3.02 11.98-5.24A30.4 30.4 0 0 0 32 54c14.36 0 26-10.75 26-24S46.36 6 32 6z" fill="url(#ayanaBubble)"/>

  <!-- Two arcs forming a heart-of-connection: parent + child, close across distance -->
  <path d="M32 38.5c-4.6-3.55-8-6.53-8-10.62 0-2.66 2.05-4.63 4.55-4.63 1.45 0 2.85.72 3.45 1.87.6-1.15 2-1.87 3.45-1.87 2.5 0 4.55 1.97 4.55 4.63 0 4.09-3.4 7.07-8 10.62z" fill="#F5EFE3"/>

  <!-- Warm accent dot: the daily hello / voice note -->
  <circle cx="47" cy="17" r="4.5" fill="#D96C4A"/>
</svg>
